PathFileType	4	(X/Y/Z)	/Users/itak/Documents/Research/Walk-IL/dataset/trc/00335_00011.trc
DataRate	CameraRate	NumFrames	NumMarkers	Units	OrigDataRate	OrigDataStartFrame	OrigNumFrames
100.000000	100.000000	4	55	mm	100.000000	201	537
Frame#	Time	RPSI			LPSI			L3			STRN			T10			C7			CLAV			RBAK			LBAK			LSHO			LUPA			LAEL			LAOL			LWTS			LWPS			LFRA			LIFD			LHPS			LHTS			RSHO			RUPA			RAEL			RAOL			RWTS			RWPS			RFRA			RIFD			RHTS			RHPS			RBHD			LFHD			RFHD			LBHD			LHIP			RHIP			RASI			LASI			LKNE			LTHI			LANK			LTIP			LTOE			LMT5			LHEE			RKNE			RTHI			RANK			RTIP			RTOE			RMT1			RMT5			RHEE			LMT1			*53			*54			
		X1	Y1	Z1	X2	Y2	Z2	X3	Y3	Z3	X4	Y4	Z4	X5	Y5	Z5	X6	Y6	Z6	X7	Y7	Z7	X8	Y8	Z8	X9	Y9	Z9	X10	Y10	Z10	X11	Y11	Z11	X12	Y12	Z12	X13	Y13	Z13	X14	Y14	Z14	X15	Y15	Z15	X16	Y16	Z16	X17	Y17	Z17	X18	Y18	Z18	X19	Y19	Z19	X20	Y20	Z20	X21	Y21	Z21	X22	Y22	Z22	X23	Y23	Z23	X24	Y24	Z24	X25	Y25	Z25	X26	Y26	Z26	X27	Y27	Z27	X28	Y28	Z28	X29	Y29	Z29	X30	Y30	Z30	X31	Y31	Z31	X32	Y32	Z32	X33	Y33	Z33	X34	Y34	Z34	X35	Y35	Z35	X36	Y36	Z36	X37	Y37	Z37	X38	Y38	Z38	X39	Y39	Z39	X40	Y40	Z40	X41	Y41	Z41	X42	Y42	Z42	X43	Y43	Z43	X44	Y44	Z44	X45	Y45	Z45	X46	Y46	Z46	X47	Y47	Z47	X48	Y48	Z48	X49	Y49	Z49	X50	Y50	Z50	X51	Y51	Z51	X52	Y52	Z52	X53	Y53	Z53	X54	Y54	Z54	X55	Y55	Z55	

202	2.01	691.2442016601562	959.410888671875	203.7815399169922	697.238037109375	958.5985107421875	74.29708099365234	694.1536865234375	1022.603149414062	142.9141998291016	926.480712890625	1204.44970703125	126.9863204956055	689.8779907226562	1141.172485351562	140.7769622802734	726.896728515625	1388.610473632812	116.8980255126953	882.6192016601562	1328.742553710938	119.8260192871094	681.919921875	1252.0068359375	194.7324066162109	715.7465209960938	1348.399169921875	18.06414794921875	799.9651489257812	1362.4033203125	-41.64262008666992	760.6510620117188	1248.887573242188	-102.8566818237305	725.2374877929688	1046.614868164062	-99.88730621337891	666.2718505859375	1055.715209960938	-39.49113845825195	749.6516723632812	788.421142578125	-33.35524749755859	709.5450439453125	784.1614990234375	-89.70713806152344	712.0147094726562	941.452392578125	-98.95655059814453	703.2380981445312	635.6971435546875	-11.62268733978271	684.3479614257812	718.5152587890625	-75.94195556640625	734.9332275390625	706.9630126953125	-38.95084381103516	790.0494384765625	1383.203125	276.4461669921875	792.214111328125	1323.876708984375	347.0871887207031	888.4484252929688	1077.77001953125	405.9890747070312	834.2166748046875	1044.008544921875	334.7999877929688	1076.424072265625	919.1604614257812	335.7233276367188	1067.418823242188	894.7919311523438	407.8252563476562	940.2831420898438	1025.597534179688	412.2451171875	1177.223999023438	776.7885131835938	339.8921508789062	1154.137329101562	846.7610473632812	341.3734741210938	1121.072021484375	828.0185546875	399.7651977539062	756.554443359375	1593.609130859375	185.0521240234375	924.0484008789062	1608.797119140625	61.58676910400391	915.7469482421875	1614.9423828125	162.3517608642578	740.81103515625	1578.054931640625	41.31350708007812	787.5949096679688	902.8917846679688	-27.78757095336914	770.2633056640625	908.1329345703125	315.4031066894531	875.5703125	939.8588256835938	275.4130859375	903.6204223632812	929.5204467773438	37.22314834594727	901.835693359375	452.0423278808594	-18.91365051269531	883.7060546875	584.8949584960938	-24.70029640197754	547.3169555664062	203.2256164550781	-8.154531478881836	725.9835205078125	312.7420349121094	-25.38326644897461	650.18603515625	36.87494659423828	74.43415832519531	606.4613647460938	90.79239654541016	-7.993829250335693	526.12158203125	237.0571899414062	55.57279968261719	898.7549438476562	449.0582580566406	288.3673706054688	872.5843505859375	708.8939208984375	322.3422546386719	902.6049194335938	39.44767761230469	233.6891784667969	927.306640625	334.5636596679688	269.4059753417969	1097.057495117188	32.2717399597168	183.1493377685547	1042.427490234375	31.72081184387207	141.4105834960938	1002.767883300781	27.91448974609375	253.1690979003906	852.343017578125	40.72690963745117	184.5525360107422	604.1184692382812	93.51302337646484	106.7489624023438	816.6399536132812	1023.487670898438	348.036376953125	nan	nan	nan	
203	2.02	685.5596313476562	958.3271484375	202.0447692871094	692.1585083007812	957.5240478515625	72.55970764160156	689.4619140625	1021.149230957031	140.8293151855469	920.441650390625	1203.4638671875	128.010009765625	683.9509887695312	1139.901000976562	138.2175598144531	720.8952026367188	1387.552490234375	115.4096984863281	876.6014404296875	1327.786499023438	120.4949569702148	675.0211181640625	1250.584350585938	192.1500091552734	711.3363037109375	1347.456787109375	16.20609855651855	796.5084228515625	1361.654663085938	-42.27774429321289	758.5201416015625	1247.791259765625	-104.2056198120117	723.3533325195312	1045.410766601562	-101.3037185668945	663.4267578125	1054.565795898438	-41.93925857543945	745.5219116210938	786.999267578125	-33.95318984985352	706.8507690429688	782.9114990234375	-91.28157043457031	710.0316772460938	940.326416015625	-100.4796829223633	696.9000244140625	634.7092895507812	-12.3747034072876	680.587158203125	717.43798828125	-77.76869964599609	730.268798828125	705.9171142578125	-39.51307678222656	781.697998046875	1381.61181640625	275.9999389648438	782.8887329101562	1322.033813476562	346.3861389160156	879.79833984375	1076.142333984375	405.52978515625	826.9761962890625	1042.121826171875	333.8406982421875	1070.441528320312	921.0963745117188	335.4594421386719	1061.443359375	895.8890991210938	407.2967834472656	932.2044067382812	1024.659423828125	412.0618896484375	1173.8828125	780.6604614257812	339.0265502929688	1149.358154296875	849.8974609375	341.1985168457031	1116.298095703125	830.1378173828125	399.0376892089844	750.6251220703125	1592.728393554688	184.9180145263672	918.58544921875	1607.64453125	62.04368209838867	909.9298095703125	1613.768432617188	162.8051910400391	735.3794555664062	1577.225830078125	41.15505599975586	782.8626098632812	901.6942138671875	-29.18718147277832	764.227783203125	907.3883056640625	314.0330200195312	869.6614379882812	939.259765625	274.4001770019531	898.7084350585938	928.1780395507812	36.38113784790039	888.1856689453125	449.1018371582031	-18.90558242797852	873.0643310546875	582.6996459960938	-24.78789901733398	536.2463989257812	196.181884765625	-6.842291355133057	713.272216796875	307.8725891113281	-24.59015655517578	642.140869140625	33.56301498413086	76.80141448974609	597.5131225585938	85.23143768310547	-5.932344436645508	514.251220703125	229.9055328369141	56.60622787475586	895.0425415039062	448.8193054199219	288.2843933105469	867.0779418945312	708.4692993164062	321.8745422363281	902.554443359375	39.30677032470703	233.9205474853516	924.5768432617188	334.6147766113281	269.3761291503906	1097.033203125	32.48275375366211	183.1845245361328	1042.331176757812	31.83642959594727	141.5443725585938	1002.803527832031	27.95742988586426	253.1272888183594	852.2549438476562	40.47360610961914	184.6348571777344	594.5426025390625	88.28560638427734	108.9344711303711	816.6266479492188	1023.485961914062	348.0362243652344	nan	nan	nan	
204	2.03	679.7268676757812	957.1901245117188	200.3342132568359	686.8199462890625	956.3992919921875	70.85227203369141	684.5679321289062	1019.655578613281	138.8138885498047	914.1935424804688	1202.332763671875	128.9552459716797	677.8406982421875	1138.584838867188	135.56884765625	714.76318359375	1386.420166015625	113.8311309814453	870.4180297851562	1326.722045898438	121.0844573974609	668.0611572265625	1249.103881835938	189.4795227050781	706.7778930664062	1346.440307617188	14.280442237854	792.890625	1360.804443359375	-42.95417404174805	756.4319458007812	1246.497924804688	-105.6076965332031	721.85107421875	1043.94140625	-102.8182754516602	660.8431396484375	1053.054565429688	-44.62229156494141	741.8773193359375	785.3094482421875	-34.76853179931641	704.804443359375	781.4000244140625	-93.12042999267578	708.5558471679688	938.9549560546875	-102.1488876342773	691.0104370117188	633.3995361328125	-13.43764305114746	677.4851684570312	716.0916748046875	-79.95380401611328	726.0988159179688	704.5750732421875	-40.29325866699219	773.2201538085938	1379.937866210938	275.4346923828125	773.4275512695312	1320.083129882812	345.5544128417969	870.7340087890625	1074.297729492188	404.9033813476562	819.3128051757812	1039.951171875	332.4769592285156	1063.992431640625	922.736572265625	335.2363891601562	1054.918090820312	896.6580810546875	406.7904663085938	923.6964111328125	1023.477722167969	411.754150390625	1169.898803710938	784.1729125976562	338.3209228515625	1144.009887695312	852.6641845703125	341.1654663085938	1110.928466796875	831.970458984375	398.4164733886719	744.5562744140625	1591.763549804688	184.691650390625	913.0374145507812	1606.370483398438	62.48530578613281	904.01171875	1612.47265625	163.2294006347656	729.8646850585938	1576.330444335938	40.92014694213867	777.761474609375	900.4616088867188	-30.6807918548584	758.075927734375	906.6116333007812	312.6213684082031	863.6221313476562	938.5999145507812	273.2067565917969	893.4476318359375	926.702880859375	35.40401840209961	874.4176025390625	446.2312316894531	-18.72557830810547	862.20849609375	580.5657958984375	-24.88932800292969	525.567626953125	188.3912811279297	-5.537557601928711	700.7347412109375	302.7245483398438	-23.68417930603027	635.6512451171875	30.99176025390625	79.06282806396484	589.8123168945312	79.64623260498047	-3.9349684715271	502.5420837402344	221.8193206787109	57.65317916870117	891.5377807617188	448.612548828125	288.1451416015625	861.5684204101562	708.0159301757812	321.3298950195312	902.4987182617188	39.19137954711914	234.1817016601562	922.0081176757812	334.6869812011719	269.2595520019531	1097.006713867188	32.7022819519043	183.2081451416016	1042.22998046875	31.94478034973145	141.6843872070312	1002.839172363281	27.99958992004395	253.0780639648438	852.1767578125	40.25466537475586	184.7319183349609	586.1085205078125	82.86592102050781	111.1673278808594	nan	nan	nan	nan	nan	nan	
205	2.04	673.712890625	956.002685546875	198.6509552001953	681.179443359375	955.248046875	69.17709350585938	679.4165649414062	1018.150451660156	136.8806304931641	907.740234375	1201.06787109375	129.7896270751953	671.5425415039062	1137.23681640625	132.8392639160156	708.513916015625	1385.223266601562	112.1613082885742	864.073486328125	1325.553588867188	121.5744400024414	661.0144653320312	1247.583618164062	186.7291717529297	702.0635986328125	1345.36767578125	12.29217624664307	789.0980224609375	1359.861694335938	-43.67655181884766	754.3745727539062	1245.02880859375	-107.0512313842773	720.7286987304688	1042.231689453125	-104.4209213256836	658.5306396484375	1051.20458984375	-47.51747131347656	738.7518310546875	783.38037109375	-35.83243179321289	703.4073486328125	779.658935546875	-95.22221374511719	707.5784301757812	937.3612670898438	-103.9447402954102	685.6817626953125	631.7906494140625	-14.87930965423584	675.0897216796875	714.4982299804688	-82.5096435546875	722.4942626953125	702.9682006835938	-41.35500717163086	764.6131591796875	1378.198608398438	274.7163696289062	763.8571166992188	1318.047729492188	344.5865783691406	861.265869140625	1072.254150390625	404.1067504882812	811.2079467773438	1037.60595703125	330.8498840332031	1057.068359375	924.0592651367188	335.0473022460938	1047.824951171875	897.0879516601562	406.3023071289062	914.7684936523438	1022.057067871094	411.3157043457031	1165.25048828125	787.2904663085938	337.7598876953125	1138.0830078125	855.048828125	341.2446594238281	1104.94482421875	833.4857177734375	397.8840637207031	738.353271484375	1590.708374023438	184.3690032958984	907.4049682617188	1604.991088867188	62.91455459594727	897.9939575195312	1611.065795898438	163.6223297119141	724.2672119140625	1575.3681640625	40.60575485229492	772.2810668945312	899.219482421875	-32.26416397094727	751.775390625	905.7925415039062	311.1666870117188	857.3587036132812	937.8284912109375	271.8981323242188	887.822021484375	925.130859375	34.27609634399414	860.6035766601562	443.4468688964844	-18.34016990661621	851.1520385742188	578.4962158203125	-24.98672485351562	515.2738037109375	180.0586395263672	-4.248550891876221	688.432861328125	297.3724670410156	-22.66213226318359	630.430908203125	29.25716209411621	81.07201385498047	583.1858520507812	74.21800231933594	-2.106565237045288	491.0558776855469	212.9796295166016	58.73758316040039	888.2586059570312	448.4493408203125	287.9190979003906	856.0903930664062	707.5408935546875	320.6917724609375	902.4329223632812	39.10392379760742	234.4593658447266	919.6123046875	334.7881774902344	269.0409851074219	1096.971801757812	32.91364288330078	183.2165069580078	1042.13037109375	32.04888916015625	141.8226165771484	1002.869079589844	28.03307723999023	253.0361480712891	852.1057739257812	40.07225036621094	184.8406372070312	578.7362060546875	77.37366485595703	113.3351821899414	nan	nan	nan	nan	nan	nan	
